<svg xmlns="http://www.w3.org/2000/svg" xmlns:xlink="http://www.w3.org/1999/xlink" width="1920" zoomAndPan="magnify" viewBox="0 0 1440 809.999993" height="1080" preserveAspectRatio="xMidYMid meet" version="1.0"><defs><g/></defs><path fill="#000000" d="M 1180.339844 646.972656 C 1180.773438 639.550781 1174.859375 633.347656 1167.65625 633.347656 L 1030.488281 633.347656 L 1028.5 100.03125 C 1018.683594 40.664062 980.75 8.675781 915.394531 4.980469 C 690.746094 5.285156 521.972656 4.378906 518 5.734375 C 476.5625 1.316406 444.777344 34.976562 444.777344 73.695312 L 444.777344 142.371094 C 444.777344 145.808594 447.558594 148.59375 450.996094 148.59375 L 565.84375 148.59375 C 565.597656 164.171875 565.367188 180.773438 565.617188 198.871094 L 565.617188 393.390625 C 540.679688 424.101562 528.542969 462.464844 531.617188 502.050781 C 534.390625 536.574219 548.886719 568.757812 571.976562 593.804688 C 572.574219 597.941406 573.417969 601.945312 574.179688 605.992188 L 541.734375 643.902344 L 540.734375 643.132812 C 533.523438 637.664062 522.824219 638.902344 517.351562 646.371094 L 429.035156 761.355469 C 420.578125 772.5625 422.566406 788.738281 433.761719 797.449219 L 440.480469 802.425781 C 451.425781 811.136719 467.597656 808.898438 476.304688 797.699219 L 564.617188 682.460938 C 570.089844 675.242188 568.847656 664.789062 561.632812 659.3125 L 559.644531 657.777344 L 580.691406 633.183594 C 582.011719 637.605469 581.820312 638.648438 583.183594 640.214844 C 605.984375 712.050781 653.941406 751.949219 726.324219 758.878906 C 796.542969 758.878906 815.734375 758.878906 1073.042969 758.878906 C 1140.507812 751.0625 1176.609375 713.414062 1180.339844 646.972656 Z M 488.492188 756.128906 L 462.371094 788.984375 C 460.515625 791.21875 457.035156 792.15625 453.414062 789.984375 C 450.929688 787.742188 450.429688 783.761719 452.421875 781.019531 L 478.542969 748.171875 C 480.78125 745.679688 484.761719 745.179688 487.5 747.175781 C 489.988281 749.410156 490.484375 753.394531 488.492188 756.128906 Z M 593.324219 632.597656 C 592.230469 629.097656 591.40625 625.390625 590.453125 621.78125 L 595.917969 615.398438 C 630.445312 640.050781 673.652344 647.730469 702.285156 642.71875 C 710.296875 641.308594 708.316406 629.109375 700.097656 630.46875 C 698.761719 630.710938 697.425781 630.957031 695.75 631.003906 C 617.359375 637.144531 550.234375 578.429688 544.007812 501.066406 C 537.984375 423.320312 596.097656 355.304688 673.910156 349.261719 C 782.238281 340.886719 858.167969 452.195312 812.800781 549.710938 C 799.28125 579.316406 775.691406 603.355469 746.378906 617.390625 C 743.28125 618.875 741.972656 622.59375 743.453125 625.691406 C 744.933594 628.792969 748.652344 630.09375 751.75 628.621094 C 783.683594 613.320312 809.386719 587.132812 824.097656 554.925781 C 825.082031 552.8125 825.738281 550.585938 826.625 548.4375 L 826.625 549.675781 C 826.625 553.117188 829.40625 555.898438 832.84375 555.898438 L 873.5 555.898438 C 876.9375 555.898438 879.71875 553.117188 879.71875 549.675781 L 879.71875 377.394531 C 879.71875 373.957031 876.9375 371.171875 873.5 371.171875 L 832.84375 371.171875 C 829.40625 371.171875 826.625 373.957031 826.625 377.394531 L 826.625 430.820312 C 801.753906 370.96875 740.753906 331.460938 672.9375 336.867188 C 636.910156 339.648438 603.726562 354.730469 578.058594 379.636719 L 578.058594 198.785156 C 576.859375 112.148438 586.011719 59.019531 560.265625 17.417969 L 915.042969 17.414062 C 975.085938 20.828125 1007.242188 47.722656 1016.144531 101.074219 L 1018.125 633.347656 L 877.097656 633.347656 C 870.597656 633.347656 865.351562 638.429688 864.875 645.148438 C 860.765625 703.746094 823.71875 736.886719 751.671875 746.449219 L 726.921875 746.457031 C 613.664062 735.585938 598.597656 638.769531 593.324219 632.597656 Z M 839.0625 543.453125 L 839.0625 383.617188 L 867.28125 383.617188 L 867.28125 543.453125 Z M 839.0625 543.453125 " fill-opacity="1" fill-rule="nonzero"/><path fill="#000000" d="M 790.097656 506.058594 C 800.375 437.4375 743.722656 378.636719 676.691406 383.996094 C 616.984375 388.605469 574.265625 440.277344 578.847656 498.316406 C 583.167969 554.296875 629.898438 596.550781 684.683594 596.527344 C 737.808594 596.527344 782.257812 558.410156 790.097656 506.058594 Z M 751.894531 543.453125 L 723.675781 543.453125 L 723.675781 431.960938 L 751.894531 431.960938 Z M 764.332031 539.949219 L 764.332031 440.761719 C 784.015625 472.351562 783.449219 509.355469 764.332031 539.949219 Z M 591.238281 497.347656 C 584.707031 413.144531 683.738281 364.320312 746.691406 419.519531 L 717.457031 419.519531 C 714.019531 419.519531 711.238281 422.300781 711.238281 425.742188 L 711.238281 549.675781 C 711.238281 553.117188 714.019531 555.898438 717.457031 555.898438 L 751.84375 555.898438 C 695.828125 612.886719 597.523438 578.285156 591.238281 497.347656 Z M 591.238281 497.347656 " fill-opacity="1" fill-rule="nonzero"/><path fill="#000000" d="M 853.167969 215.773438 C 849.730469 215.773438 846.945312 218.558594 846.945312 221.996094 C 846.945312 225.4375 849.730469 228.21875 853.167969 228.21875 L 914.582031 228.21875 C 918.019531 228.21875 920.800781 225.4375 920.800781 221.996094 C 920.800781 218.558594 918.019531 215.773438 914.582031 215.773438 Z M 853.167969 215.773438 " fill-opacity="1" fill-rule="nonzero"/><path fill="#000000" d="M 790.472656 265.941406 L 680.578125 265.941406 C 677.140625 265.941406 674.359375 268.722656 674.359375 272.164062 C 674.359375 275.601562 677.140625 278.386719 680.578125 278.386719 L 790.472656 278.386719 C 793.914062 278.386719 796.695312 275.601562 796.695312 272.164062 C 796.695312 268.722656 793.914062 265.941406 790.472656 265.941406 Z M 790.472656 265.941406 " fill-opacity="1" fill-rule="nonzero"/><path fill="#000000" d="M 794.785156 215.140625 L 684.890625 215.140625 C 681.453125 215.140625 678.671875 217.925781 678.671875 221.363281 C 678.671875 224.804688 681.453125 227.585938 684.890625 227.585938 L 794.785156 227.585938 C 798.222656 227.585938 801.007812 224.804688 801.007812 221.363281 C 801.007812 217.925781 798.222656 215.140625 794.785156 215.140625 Z M 794.785156 215.140625 " fill-opacity="1" fill-rule="nonzero"/><path fill="#000000" d="M 920.800781 272.164062 C 920.800781 268.722656 918.019531 265.941406 914.582031 265.941406 L 853.167969 265.941406 C 849.730469 265.941406 846.945312 268.722656 846.945312 272.164062 C 846.945312 275.601562 849.730469 278.386719 853.167969 278.386719 L 914.582031 278.386719 C 918.019531 278.386719 920.800781 275.601562 920.800781 272.164062 Z M 920.800781 272.164062 " fill-opacity="1" fill-rule="nonzero"/><path fill="#000000" d="M 657.203125 112.753906 C 658.53125 112.480469 660.140625 112.492188 661.226562 111.976562 C 670.195312 107.703125 670.140625 95.226562 664.265625 89.980469 C 658.203125 84.566406 649.351562 86.949219 637.542969 86.355469 C 633.976562 86.355469 631.785156 88.324219 631.785156 92.117188 L 631.785156 124.832031 C 631.785156 131.703125 639.417969 131.566406 641.757812 129.074219 C 642.703125 128.066406 643.179688 126.644531 643.179688 124.832031 L 643.179688 113.738281 L 646.589844 113.738281 C 651.492188 113.738281 650.894531 116.746094 656.746094 126.5 C 658.394531 129.488281 660.355469 130.59375 663.367188 130.59375 C 668.191406 130.59375 669.519531 126.996094 667.460938 123.21875 C 663.511719 116.605469 663.28125 113.355469 657.203125 112.753906 Z M 643.179688 105.691406 L 643.179688 95.09375 L 650.734375 95.09375 C 654.5625 95.09375 657.488281 96.480469 657.488281 100.359375 C 657.488281 107.753906 648.035156 105.214844 643.179688 105.691406 Z M 643.179688 105.691406 " fill-opacity="1" fill-rule="nonzero"/><path fill="#000000" d="M 702.445312 130.035156 C 703.925781 130.035156 705.042969 129.660156 705.785156 128.917969 C 707.238281 127.460938 707.332031 123.976562 705.785156 122.378906 C 705.042969 121.625 703.925781 121.234375 702.445312 121.234375 L 686.398438 121.234375 L 686.398438 112.253906 L 701.082031 112.253906 C 704.074219 112.253906 705.542969 110.625 705.542969 107.855469 C 705.542969 105.085938 704.074219 103.457031 701.082031 103.457031 L 686.398438 103.457031 L 686.398438 95.15625 L 702.445312 95.15625 C 705.4375 95.15625 706.902344 93.5625 706.902344 90.695312 C 706.902344 87.90625 705.421875 86.355469 702.445312 86.355469 L 681.453125 86.355469 C 677.539062 86.355469 675.5 88.46875 675.5 92.238281 C 675.941406 122.699219 674.359375 125.851562 677.019531 128.515625 C 679.570312 131.066406 682.871094 129.625 702.445312 130.035156 Z M 702.445312 130.035156 " fill-opacity="1" fill-rule="nonzero"/><path fill="#000000" d="M 718.234375 119.011719 C 712.304688 116.316406 708.832031 125.015625 714.519531 127.738281 C 721.792969 131.273438 735.382812 132.402344 742.625 126.910156 C 748.992188 122.074219 748.960938 113.183594 744.667969 108.914062 C 740.457031 104.675781 733.316406 104.382812 728.511719 103.078125 C 726.144531 102.578125 723.433594 101.792969 723.433594 99.375 C 723.433594 93.808594 734.011719 94.402344 739.042969 96.636719 C 745.453125 99.324219 747.855469 91.074219 743.003906 88.519531 C 733.023438 82.664062 712.28125 85.246094 712.28125 99.921875 C 712.28125 114.539062 730.757812 111.792969 735.351562 115.292969 C 736.839844 116.40625 737.136719 118.777344 734.851562 120.277344 C 731.578125 122.460938 722.636719 121.09375 718.234375 119.011719 Z M 718.234375 119.011719 " fill-opacity="1" fill-rule="nonzero"/><path fill="#000000" d="M 759.171875 130.035156 L 780.160156 130.035156 C 783.136719 130.035156 784.621094 128.507812 784.621094 125.636719 C 784.621094 122.820312 783.132812 121.234375 780.160156 121.234375 L 764.113281 121.234375 L 764.113281 112.253906 L 778.800781 112.253906 C 781.792969 112.253906 783.257812 110.625 783.257812 107.855469 C 783.257812 105.085938 781.792969 103.457031 778.800781 103.457031 L 764.113281 103.457031 L 764.113281 95.15625 L 780.160156 95.15625 C 783.15625 95.15625 784.621094 93.5625 784.621094 90.695312 C 784.621094 87.90625 783.140625 86.355469 780.160156 86.355469 L 759.171875 86.355469 C 755.257812 86.355469 753.21875 88.46875 753.21875 92.238281 L 753.21875 124.152344 C 753.21875 127.917969 755.25 130.035156 759.171875 130.035156 Z M 759.171875 130.035156 " fill-opacity="1" fill-rule="nonzero"/><path fill="#000000" d="M 816.699219 90.441406 C 813.347656 83.625 806.40625 84.691406 803.75 90.441406 L 788.335938 123.65625 C 786.558594 127.691406 788.707031 130.59375 792.601562 130.59375 C 795.210938 130.59375 796.6875 129.90625 798.492188 125.878906 L 800.488281 121.175781 L 819.960938 121.175781 L 821.960938 125.878906 C 823.554688 129.617188 825.253906 130.59375 828.15625 130.59375 C 831.980469 130.59375 834.121094 127.710938 832.113281 123.65625 Z M 810.128906 98.253906 L 810.25 98.253906 L 816.242188 112.4375 L 804.195312 112.4375 Z M 810.128906 98.253906 " fill-opacity="1" fill-rule="nonzero"/><path fill="#000000" d="M 849.207031 124.832031 L 849.207031 113.738281 L 852.621094 113.738281 C 857.519531 113.738281 856.921875 116.746094 862.773438 126.5 C 863.550781 127.90625 864.449219 128.941406 865.460938 129.597656 C 868.425781 131.542969 874.277344 130.945312 874.410156 126.71875 C 874.449219 125.585938 874.144531 124.421875 873.488281 123.21875 C 869.539062 116.605469 869.3125 113.355469 863.230469 112.753906 C 864.558594 112.480469 866.167969 112.492188 867.257812 111.976562 C 872.058594 109.6875 874.351562 105.351562 874.351562 100.054688 C 874.351562 90.9375 868.15625 86.355469 858.800781 86.355469 L 843.570312 86.355469 C 840.007812 86.355469 837.8125 88.324219 837.8125 92.117188 L 837.8125 124.832031 C 837.8125 128.367188 839.785156 130.59375 843.507812 130.59375 C 847.324219 130.59375 849.207031 128.453125 849.207031 124.832031 Z M 849.207031 95.09375 L 856.761719 95.09375 C 860.589844 95.09375 863.515625 96.480469 863.515625 100.359375 C 863.515625 107.753906 854.066406 105.214844 849.207031 105.691406 Z M 849.207031 95.09375 " fill-opacity="1" fill-rule="nonzero"/><path fill="#000000" d="M 903.273438 130.714844 C 909.019531 130.714844 918.613281 128.722656 917.644531 122.753906 C 917.105469 119.671875 914.441406 117.574219 910.828125 119.132812 C 904.65625 122.066406 896.367188 121.480469 893.433594 115.074219 C 891.675781 111.289062 891.667969 105.042969 893.433594 101.292969 C 896.441406 94.804688 904.671875 94.367188 911.207031 97.378906 C 915.53125 99.59375 918.796875 94.375 917.023438 90.636719 C 913.195312 82.777344 880.121094 80.972656 880.121094 108.160156 C 880.121094 121.667969 888.503906 130.714844 903.273438 130.714844 Z M 903.273438 130.714844 " fill-opacity="1" fill-rule="nonzero"/><path fill="#000000" d="M 933.800781 129.074219 C 936.1875 126.535156 934.917969 122.445312 935.21875 112.558594 L 953.246094 112.558594 L 953.246094 124.773438 C 953.246094 128.46875 955.203125 130.59375 958.945312 130.59375 C 962.558594 130.59375 964.582031 128.507812 964.582031 124.773438 C 964.164062 93.496094 965.710938 89.933594 963.121094 87.28125 C 962.152344 86.296875 960.753906 85.796875 958.945312 85.796875 C 955.105469 85.796875 953.246094 87.941406 953.246094 91.621094 L 953.246094 103.214844 L 935.21875 103.214844 L 935.21875 91.621094 C 935.21875 89.722656 934.734375 88.277344 933.761719 87.28125 C 931.859375 85.328125 927.355469 85.246094 925.320312 87.28125 C 922.71875 89.882812 924.269531 92.234375 923.828125 124.773438 C 923.828125 131.707031 931.445312 131.578125 933.800781 129.074219 Z M 933.800781 129.074219 " fill-opacity="1" fill-rule="nonzero"/><path fill="#000000" d="M 929.558594 330.023438 L 929.558594 549.675781 C 929.558594 553.117188 932.339844 555.898438 935.78125 555.898438 L 976.4375 555.898438 C 979.875 555.898438 982.65625 553.117188 982.65625 549.675781 L 982.65625 330.023438 C 982.65625 326.585938 979.875 323.800781 976.4375 323.800781 L 935.78125 323.800781 C 932.339844 323.800781 929.558594 326.585938 929.558594 330.023438 Z M 942 336.246094 L 970.214844 336.246094 L 970.214844 543.453125 L 942 543.453125 Z M 942 336.246094 " fill-opacity="1" fill-rule="nonzero"/><g fill="#000000" fill-opacity="1"><g transform="translate(961.463334, 691.765233)"><g><path d="M 4.46875 0.171875 C 3.832031 0.171875 3.332031 -0.00390625 2.96875 -0.359375 C 2.601562 -0.710938 2.421875 -1.1875 2.421875 -1.78125 C 2.421875 -2.351562 2.601562 -2.820312 2.96875 -3.1875 C 3.332031 -3.5625 3.832031 -3.75 4.46875 -3.75 C 5.101562 -3.75 5.601562 -3.570312 5.96875 -3.21875 C 6.34375 -2.863281 6.53125 -2.394531 6.53125 -1.8125 C 6.53125 -1.226562 6.34375 -0.75 5.96875 -0.375 C 5.59375 -0.0078125 5.09375 0.171875 4.46875 0.171875 Z M 4.46875 0.171875 "/></g></g></g></svg>